<svg xmlns="http://www.w3.org/2000/svg" viewBox="0 0 24 24" width="24" height="24" color="#fff" fill="none">
    <path d="M7 9.5a2.5 2.5 0 11-5 0 2.5 2.5 0 015 0zm0 0V2c.333.5.6 2.6 3 3" stroke="#fff" stroke-width="1.5"
        stroke-linecap="round" stroke-linejoin="round" />
    <circle cx="10.5" cy="19.5" r="2.5" stroke="#fff" stroke-width="1.5" />
    <circle cx="20" cy="18" r="2" stroke="#fff" stroke-width="1.5" />
    <path
        d="M13 19.5V11c0-.91 0-1.365.247-1.648.246-.282.747-.35 1.748-.487 3.014-.411 5.206-1.667 6.375-2.436.28-.184.42-.276.525-.22.105.057.105.223.105.554v11.163M13 13c4.8 0 8-2.333 9-3"
        stroke="#fff" stroke-width="1.5" stroke-linecap="round" stroke-linejoin="round" />
</svg>